# xmcd CD database file
#
# Track frame offsets:
#	150
#	17875
#	36072
#	56723
#	75470
#	90973
#	112000
#	127929
#	146820
#	164519
#	184612
#
# Disc length: 2711 seconds
#
# Revision: 2
# Processed by: cddbd v1.5.2PL0 Copyright (c) Steve Scherf et al.
# Submitted via: CDex 1.70beta2
#
DISCID=8a0a950b
DTITLE=Various Artist - 王浩劉罡:二人傳奇
DYEAR=2004
DGENRE=Vocal
TTITLE0=鄉間小路
TTITLE1=小薇
TTITLE2=花房姑娘
TTITLE3=愛
TTITLE4=虹彩妹妹
TTITLE5=情難枕
TTITLE6=夢駝鈴
TTITLE7=冷冷的夏
TTITLE8=阿里山的姑娘
TTITLE9=失戀十四行
TTITLE10=黃昏
EXTD=YEAR: 2004
EXTT0=
EXTT1=
EXTT2=
EXTT3=
EXTT4=
EXTT5=
EXTT6=
EXTT7=
EXTT8=
EXTT9=
EXTT10=
PLAYORDER=
